# xmcd
#
# Track frame offsets:
#        150
#        14498
#        32079
#        51613
#        70543
#        84224
#        93357
#        101718
#        114110
#        134451
#        152433
#        160634
#
# Disc length: 2252 seconds
#
# Revision: 1
# Processed by: cddbd v1.5.1PL2 Copyright (c) Steve Scherf et al.
# Submitted via: ExactAudioCopy v0.90a11
#
DISCID=8a08ca0c
DTITLE=Various Artist - Сьвяты вечар 2000
DYEAR=1900
DGENRE=
TTITLE0=Ціхая ноч
TTITLE1=Цуд на каляды
TTITLE2=Шчодры вечар, сьвяты вечар
TTITLE3=Новая радасьць
TTITLE4=2000 год
TTITLE5=Званочкі
TTITLE6=Калядны марш
TTITLE7=Глёрыя!
TTITLE8=Ave Марыя!
TTITLE9=Пастушкі мілы
TTITLE10=Сьвяты Мікалай
TTITLE11=Учора зь вячора
EXTD=
EXTT0=
EXTT1=
EXTT2=
EXTT3=
EXTT4=
EXTT5=
EXTT6=
EXTT7=
EXTT8=
EXTT9=
EXTT10=
EXTT11=
PLAYORDER=
